# This file uses centimeters as units for non-parametric coordinates.

mtllib InventoryScreen.mtl
g default
v -9.999999 -5.000000 0.500000
v 9.999999 -5.000000 0.500000
v -9.999999 5.000000 0.500000
v 9.999999 5.000000 0.500000
v -9.999999 5.000000 -0.500000
v 9.999999 5.000000 -0.500000
v -9.999999 -5.000000 -0.500000
v 9.999999 -5.000000 -0.500000
vt -0.701728 0.000000
vt 0.974638 0.230276
vt -0.701728 0.250000
vt -0.451728 0.250000
vt -0.701728 0.500000
vt -0.451728 0.500000
vt -0.701728 0.750000
vt -0.451728 0.750000
vt -0.701728 1.000000
vt -0.451728 1.000000
vt -0.201728 0.000000
vt -0.201728 0.250000
vt -0.951728 0.000000
vt -0.951728 0.250000
vt -0.451728 0.000000
vt 0.974638 0.776344
vt -0.451728 0.250000
vt 0.014780 0.230276
vt 0.014780 0.776344
vt -0.701728 0.250000
vn 0.000000 0.000000 1.000000
vn 0.000000 0.000000 1.000000
vn 0.000000 0.000000 1.000000
vn 0.000000 0.000000 1.000000
vn 0.000000 1.000000 0.000000
vn 0.000000 1.000000 0.000000
vn 0.000000 1.000000 0.000000
vn 0.000000 1.000000 0.000000
vn 0.000000 0.000000 -1.000000
vn 0.000000 0.000000 -1.000000
vn 0.000000 0.000000 -1.000000
vn 0.000000 0.000000 -1.000000
vn 0.000000 -1.000000 0.000000
vn 0.000000 -1.000000 0.000000
vn 0.000000 -1.000000 0.000000
vn 0.000000 -1.000000 0.000000
vn 1.000000 0.000000 0.000000
vn 1.000000 0.000000 0.000000
vn 1.000000 0.000000 0.000000
vn 1.000000 0.000000 0.000000
vn -1.000000 0.000000 0.000000
vn -1.000000 0.000000 0.000000
vn -1.000000 0.000000 0.000000
vn -1.000000 0.000000 0.000000
s 1
g pCube1
usemtl initialShadingGroup
f 1/18/1 2/2/2 3/19/3
f 3/19/3 2/2/2 4/16/4
s 2
f 3/3/5 4/17/6 5/5/7
f 5/5/7 4/17/6 6/6/8
s 3
f 5/5/9 6/6/10 7/7/11
f 7/7/11 6/6/10 8/8/12
s 4
f 7/7/13 8/8/14 1/9/15
f 1/9/15 8/8/14 2/10/16
s 5
f 2/15/17 8/11/18 4/4/19
f 4/4/19 8/11/18 6/12/20
s 6
f 7/13/21 1/1/22 5/14/23
f 5/14/23 1/1/22 3/20/24
g default
v -9.999999 -5.000000 0.500000
v 9.999999 -5.000000 0.500000
v -9.999999 5.000000 0.500000
v 9.999999 5.000000 0.500000
v -9.999999 5.000000 -0.500000
v 9.999999 5.000000 -0.500000
v -9.999999 -5.000000 -0.500000
v 9.999999 -5.000000 -0.500000
vt -0.701728 0.000000
vt 0.974638 0.230276
vt -0.701728 0.250000
vt -0.451728 0.250000
vt -0.701728 0.500000
vt -0.451728 0.500000
vt -0.701728 0.750000
vt -0.451728 0.750000
vt -0.701728 1.000000
vt -0.451728 1.000000
vt -0.201728 0.000000
vt -0.201728 0.250000
vt -0.951728 0.000000
vt -0.951728 0.250000
vt -0.451728 0.000000
vt 0.974638 0.776344
vt -0.451728 0.250000
vt 0.014780 0.230276
vt 0.014780 0.776344
vt -0.701728 0.250000
vn 0.000000 0.000000 1.000000
vn 0.000000 0.000000 1.000000
vn 0.000000 0.000000 1.000000
vn 0.000000 0.000000 1.000000
vn 0.000000 1.000000 0.000000
vn 0.000000 1.000000 0.000000
vn 0.000000 1.000000 0.000000
vn 0.000000 1.000000 0.000000
vn 0.000000 0.000000 -1.000000
vn 0.000000 0.000000 -1.000000
vn 0.000000 0.000000 -1.000000
vn 0.000000 0.000000 -1.000000
vn 0.000000 -1.000000 0.000000
vn 0.000000 -1.000000 0.000000
vn 0.000000 -1.000000 0.000000
vn 0.000000 -1.000000 0.000000
vn 1.000000 0.000000 0.000000
vn 1.000000 0.000000 0.000000
vn 1.000000 0.000000 0.000000
vn 1.000000 0.000000 0.000000
vn -1.000000 0.000000 0.000000
vn -1.000000 0.000000 0.000000
vn -1.000000 0.000000 0.000000
vn -1.000000 0.000000 0.000000
s 1
g pCube1
f 9/38/25 10/22/26 11/39/27
f 11/39/27 10/22/26 12/36/28
s 2
f 11/23/29 12/37/30 13/25/31
f 13/25/31 12/37/30 14/26/32
s 3
f 13/25/33 14/26/34 15/27/35
f 15/27/35 14/26/34 16/28/36
s 4
f 15/27/37 16/28/38 9/29/39
f 9/29/39 16/28/38 10/30/40
s 5
f 10/35/41 16/31/42 12/24/43
f 12/24/43 16/31/42 14/32/44
s 6
f 15/33/45 9/21/46 13/34/47
f 13/34/47 9/21/46 11/40/48
